<svg width="24" height="24" viewBox="0 0 24 24" fill="none" xmlns="http://www.w3.org/2000/svg">
<path d="M7.5 4C7.03406 4 6.80109 4 6.61732 4.07612C6.37229 4.17761 6.17761 4.37229 6.07612 4.61732C6 4.80109 6 5.03406 6 5.5C6 5.56803 6 5.63576 6 5.7032C6 10.6334 6 14.0305 6 18.875C6 18.9304 6 18.9582 6.00063 18.9759C6.02912 19.7776 6.94256 20.2211 7.59017 19.7477C7.60451 19.7372 7.62629 19.7201 7.66985 19.6858L8.025 19.4062L11.4 16.4722C11.752 16.1952 12.248 16.1952 12.6 16.4722L16 19.4259L16.3301 19.6858C16.3737 19.7201 16.3955 19.7372 16.4098 19.7477C17.0574 20.2211 17.9709 19.7776 17.9994 18.9759C18 18.9582 18 18.9304 18 18.875V5.7032V5.5C18 5.03406 18 4.80109 17.9239 4.61732C17.8224 4.37229 17.6277 4.17761 17.3827 4.07612C17.1989 4 16.9659 4 16.5 4H7.5Z" fill="black"/>
</svg>
